<?xml version="1.0" encoding="UTF-8"?>
<svg id="Layer_1" data-name="Layer 1" xmlns="http://www.w3.org/2000/svg" viewBox="0 0 2175.65 853.04">
  <g>
    <path d="M85.38,473.13c0-87.43,67.62-153.76,157.2-153.76,71.06,0,130.06,41.78,146,100.35h-74.51c-14.64-21.97-40.48-36.18-71.49-36.18-50.39,0-88.72,38.33-88.72,89.58s38.33,89.58,88.72,89.58c37.47,0,68.48-20.24,80.1-50.82h-71.06v-60.3h143.85v22.83c0,86.99-64.17,152.46-152.89,152.46s-157.2-66.32-157.2-153.75Z" fill="#f1f5f5"/>
    <path d="M434.62,402.07h62.88v30.58c16.8-21.54,39.62-34.02,66.32-34.02h8.62v64.6h-8.62c-42.64,0-66.32,21.96-66.32,55.98v102.5h-62.88v-219.65Z" fill="#f1f5f5"/>
    <path d="M584.49,511.89c0-65.46,50.82-114.99,118.44-114.99s118.43,49.52,118.43,114.99-50.82,114.99-118.43,114.99-118.44-49.53-118.44-114.99ZM756.75,511.89c0-31.01-22.83-54.27-53.83-54.27s-53.84,23.26-53.84,54.27,22.83,54.26,53.84,54.26,53.83-23.25,53.83-54.26Z" fill="#f1f5f5"/>
    <path d="M854.92,544.19v-142.13h62.88v123.18c0,24.54,15.5,40.91,39.19,40.91,25.41,0,42.63-16.79,42.63-41.77v-122.31h62.88v219.65h-62.88v-21.54c-16.36,17.66-37.9,26.7-63.74,26.7-48.67,0-80.97-32.73-80.97-82.69Z" fill="#f1f5f5"/>
    <path d="M1112.44,402.07h62.88v21.54c17.22-17.66,39.62-26.7,66.76-26.7,50.39,0,83.98,33.16,83.98,83.55v141.26h-62.88v-120.16c0-26.7-16.8-43.93-42.21-43.93-27.14,0-45.65,17.66-45.65,44.79v119.29h-62.88v-219.65Z" fill="#f1f5f5"/>
    <path d="M1362.63,511.89c0-65.46,45.65-114.99,105.95-114.99,26.7,0,49.52,9.91,66.32,27.13v-112.41h62.88v310.09h-62.88v-21.96c-16.8,17.22-39.62,27.13-66.32,27.13-60.3,0-105.95-49.53-105.95-114.99ZM1534.9,511.89c0-31.01-22.83-54.27-53.84-54.27s-53.4,23.26-53.4,54.27,22.83,54.26,53.4,54.26,53.84-23.25,53.84-54.26Z" fill="#f1f5f5"/>
    <path d="M1638.66,576.06l94.74-113.27h-93.02v-60.73h185.62v45.65l-94.74,113.27h97.76v60.73h-190.35v-45.65Z" fill="#f1f5f5"/>
    <path d="M1933.22,619.13l-88.29-217.06h71.92l50.82,139.54,50.39-139.54h70.2l-122.74,301.48h-67.18l34.88-84.41Z" fill="#f1f5f5"/>
    <polygon points="1170.68 77.89 1147.2 118.56 1087.82 20.5 1028.44 118.56 1004.96 77.89 883.29 288.62 1049.01 288.62 1126.62 288.62 1292.34 288.62 1170.68 77.89" fill="#88bd4a"/>
  </g>
  <text transform="translate(558.81 796.12)" fill="#f1f5f5" font-family="NeulisSans-Bold, &apos;Neulis Sans&apos;" font-size="120" font-weight="700"><tspan x="0" y="0" letter-spacing="-.05em">T</tspan><tspan x="61.56" y="0" letter-spacing="-.01em">r</tspan><tspan x="106.92" y="0">ee Mappi</tspan><tspan x="646.67" y="0" letter-spacing="0em">n</tspan><tspan x="719.75" y="0" letter-spacing="0em">g App</tspan></text>
</svg>