<?xml version="1.0" encoding="UTF-8"?>
<svg id="Layer_1" data-name="Layer 1" xmlns="http://www.w3.org/2000/svg" viewBox="0 0 2175.65 853.04">
  <g>
    <path d="M85.38,473.13c0-87.43,67.62-153.76,157.2-153.76,71.06,0,130.06,41.78,146,100.35h-74.51c-14.64-21.97-40.48-36.18-71.49-36.18-50.39,0-88.72,38.33-88.72,89.58s38.33,89.58,88.72,89.58c37.47,0,68.48-20.24,80.1-50.82h-71.06v-60.3h143.85v22.83c0,86.99-64.17,152.46-152.89,152.46s-157.2-66.32-157.2-153.75Z" fill="#f1f5f5"/>
    <path d="M434.62,402.07h62.88v30.58c16.8-21.54,39.62-34.02,66.32-34.02h8.62v64.6h-8.62c-42.64,0-66.32,21.96-66.32,55.98v102.5h-62.88v-219.65Z" fill="#f1f5f5"/>
    <path d="M584.49,511.89c0-65.46,50.82-114.99,118.44-114.99s118.43,49.52,118.43,114.99-50.82,114.99-118.43,114.99-118.44-49.53-118.44-114.99ZM756.75,511.89c0-31.01-22.83-54.27-53.83-54.27s-53.84,23.26-53.84,54.27,22.83,54.26,53.84,54.26,53.83-23.25,53.83-54.26Z" fill="#f1f5f5"/>
    <path d="M854.92,544.19v-142.13h62.88v123.18c0,24.54,15.5,40.91,39.19,40.91,25.41,0,42.63-16.79,42.63-41.77v-122.31h62.88v219.65h-62.88v-21.54c-16.36,17.66-37.9,26.7-63.74,26.7-48.67,0-80.97-32.73-80.97-82.69Z" fill="#f1f5f5"/>
    <path d="M1112.44,402.07h62.88v21.54c17.22-17.66,39.62-26.7,66.76-26.7,50.39,0,83.98,33.16,83.98,83.55v141.26h-62.88v-120.16c0-26.7-16.8-43.93-42.21-43.93-27.14,0-45.65,17.66-45.65,44.79v119.29h-62.88v-219.65Z" fill="#f1f5f5"/>
    <path d="M1362.63,511.89c0-65.46,45.65-114.99,105.95-114.99,26.7,0,49.52,9.91,66.32,27.13v-112.41h62.88v310.09h-62.88v-21.96c-16.8,17.22-39.62,27.13-66.32,27.13-60.3,0-105.95-49.53-105.95-114.99ZM1534.9,511.89c0-31.01-22.83-54.27-53.84-54.27s-53.4,23.26-53.4,54.27,22.83,54.26,53.4,54.26,53.84-23.25,53.84-54.26Z" fill="#f1f5f5"/>
    <path d="M1638.66,576.06l94.74-113.27h-93.02v-60.73h185.62v45.65l-94.74,113.27h97.76v60.73h-190.35v-45.65Z" fill="#f1f5f5"/>
    <path d="M1933.22,619.13l-88.29-217.06h71.92l50.82,139.54,50.39-139.54h70.2l-122.74,301.48h-67.18l34.88-84.41Z" fill="#f1f5f5"/>
    <polygon points="1170.68 77.89 1147.2 118.56 1087.82 20.5 1028.44 118.56 1004.96 77.89 883.29 288.62 1049.01 288.62 1126.62 288.62 1292.34 288.62 1170.68 77.89" fill="#88bd4a"/>
  </g>
  <g>
    <path d="M583.53,730.85h-21.72v-17.52h62.04v17.52h-21.72v65.28h-18.6v-65.28Z" fill="#f1f5f5"/>
    <path d="M627.33,734.93h17.52v8.52c4.68-6,11.04-9.48,18.48-9.48h2.4v18h-2.4c-11.88,0-18.48,6.12-18.48,15.6v28.56h-17.52v-61.2Z" fill="#f1f5f5"/>
    <path d="M669.1,765.53c0-18.24,14.16-32.04,33-32.04s33,13.68,33,32.4c0,1.68-.12,3.72-.48,5.28h-46.8c1.92,6.96,7.56,11.4,14.88,11.4,5.64,0,10.2-2.4,12.72-5.76h18.72c-4.56,12.36-16.8,20.76-31.92,20.76-18.96,0-33.12-13.8-33.12-32.04ZM687.93,759.53h28.44c-1.8-6.72-7.32-11.04-14.28-11.04s-12.24,4.32-14.16,11.04Z" fill="#f1f5f5"/>
    <path d="M741.57,765.53c0-18.24,14.16-32.04,33-32.04s33,13.68,33,32.4c0,1.68-.12,3.72-.48,5.28h-46.8c1.92,6.96,7.56,11.4,14.88,11.4,5.64,0,10.2-2.4,12.72-5.76h18.72c-4.56,12.36-16.8,20.76-31.92,20.76-18.96,0-33.12-13.8-33.12-32.04ZM760.41,759.53h28.44c-1.8-6.72-7.32-11.04-14.28-11.04s-12.24,4.32-14.16,11.04Z" fill="#f1f5f5"/>
    <path d="M845.01,713.33h23.04l23.28,42.72,23.4-42.72h22.8v82.8h-18.6v-55.2l-22.44,41.28h-10.56l-22.32-41.28v55.2h-18.6v-82.8Z" fill="#f1f5f5"/>
    <path d="M948.93,765.53c0-18.24,12.72-32.04,29.52-32.04,7.44,0,13.8,2.76,18.48,7.56v-6.12h17.52v61.2h-17.52v-6.12c-4.68,4.8-11.04,7.56-18.48,7.56-16.8,0-29.52-13.8-29.52-32.04ZM996.93,765.53c0-8.64-6.36-15.12-15-15.12s-14.88,6.48-14.88,15.12,6.36,15.12,14.88,15.12,15-6.48,15-15.12Z" fill="#f1f5f5"/>
    <path d="M1028.37,734.93h17.52v6.12c4.68-4.8,11.04-7.56,18.48-7.56,16.92,0,29.52,13.8,29.52,32.04s-12.6,32.04-29.52,32.04c-7.44,0-13.8-2.76-18.48-7.56v28.92h-17.52v-84ZM1075.89,765.53c0-8.64-6.36-15.12-15-15.12s-15,6.48-15,15.12,6.36,15.12,15,15.12,15-6.48,15-15.12Z" fill="#f1f5f5"/>
    <path d="M1104.45,734.93h17.52v6.12c4.68-4.8,11.04-7.56,18.48-7.56,16.92,0,29.52,13.8,29.52,32.04s-12.6,32.04-29.52,32.04c-7.44,0-13.8-2.76-18.48-7.56v28.92h-17.52v-84ZM1151.97,765.53c0-8.64-6.36-15.12-15-15.12s-15,6.48-15,15.12,6.36,15.12,15,15.12,15-6.48,15-15.12Z" fill="#f1f5f5"/>
    <path d="M1178.73,716.57c0-6.12,4.68-10.68,10.8-10.68s10.92,4.56,10.92,10.68-4.68,10.8-10.92,10.8-10.8-4.56-10.8-10.8ZM1180.77,734.93h17.52v61.2h-17.52v-61.2Z" fill="#f1f5f5"/>
    <path d="M1212.44,734.93h17.52v6c4.8-4.92,11.04-7.44,18.6-7.44,14.04,0,23.4,9.24,23.4,23.28v39.36h-17.52v-33.48c0-7.44-4.68-12.24-11.76-12.24-7.56,0-12.72,4.92-12.72,12.48v33.24h-17.52v-61.2Z" fill="#f1f5f5"/>
    <path d="M1282.28,763.97c0-17.4,12.6-30.48,29.52-30.48,7.44,0,13.8,2.64,18.48,7.2v-5.76h17.52v54.6c0,18.6-12.6,30.84-31.56,30.84-15.96,0-28.32-8.52-30.72-22.08h18.12c1.8,4.08,6.84,6.84,12.84,6.84,8.4,0,13.8-5.52,13.8-14.76v-3.12c-4.68,4.56-11.04,7.2-18.48,7.2-16.92,0-29.52-13.2-29.52-30.48ZM1330.28,763.97c0-8.16-6.48-14.28-15-14.28s-15,6.12-15,14.28,6.36,14.28,15,14.28,15-6.24,15-14.28Z" fill="#f1f5f5"/>
    <path d="M1411.76,713.33h21.96l31.2,82.8h-20.4l-5.04-14.52h-33.72l-5.16,14.52h-19.92l31.08-82.8ZM1433.36,764.45l-10.8-30.6-10.8,30.6h21.6Z" fill="#f1f5f5"/>
    <path d="M1471.64,734.93h17.52v6.12c4.68-4.8,11.04-7.56,18.48-7.56,16.92,0,29.52,13.8,29.52,32.04s-12.6,32.04-29.52,32.04c-7.44,0-13.8-2.76-18.48-7.56v28.92h-17.52v-84ZM1519.16,765.53c0-8.64-6.36-15.12-15-15.12s-15,6.48-15,15.12,6.36,15.12,15,15.12,15-6.48,15-15.12Z" fill="#f1f5f5"/>
    <path d="M1547.72,734.93h17.52v6.12c4.68-4.8,11.04-7.56,18.48-7.56,16.92,0,29.52,13.8,29.52,32.04s-12.6,32.04-29.52,32.04c-7.44,0-13.8-2.76-18.48-7.56v28.92h-17.52v-84ZM1595.24,765.53c0-8.64-6.36-15.12-15-15.12s-15,6.48-15,15.12,6.36,15.12,15,15.12,15-6.48,15-15.12Z" fill="#f1f5f5"/>
  </g>
</svg>