<?xml version="1.0" encoding="UTF-8"?>
<svg id="Layer_1" data-name="Layer 1" xmlns="http://www.w3.org/2000/svg" viewBox="0 0 31 31">
  <path d="M25.68,4.47l-3.84,3.84c-3.61-3.19-9.07-3.19-12.69,0l-3.84-3.84-.85.85,3.84,3.84c-3.19,3.61-3.19,9.07,0,12.69l-3.84,3.84.85.85,3.84-3.84c3.61,3.19,9.07,3.19,12.69,0l3.84,3.84.85-.85-3.84-3.84c3.19-3.61,3.19-9.07,0-12.69l3.84-3.84-.85-.85ZM21.44,21.44c-3.27,3.27-8.61,3.27-11.88,0s-3.27-8.61,0-11.88,8.61-3.27,11.88,0,3.27,8.61,0,11.88Z" fill="#fff"/>
  <circle cx="15.5" cy="15.5" r="1.2" fill="#fff"/>
  <g>
    <path d="M14.65,30.75v-5.45c-4.75-.41-8.54-4.2-8.95-8.95H.25v-1.7h5.45c.41-4.75,4.2-8.54,8.95-8.95V.25h1.7v5.45c4.75.41,8.54,4.2,8.95,8.95h5.45v1.7h-5.45c-.41,4.75-4.2,8.54-8.95,8.95v5.45h-1.7ZM15.5,7.35c-4.49,0-8.15,3.66-8.15,8.15s3.66,8.15,8.15,8.15,8.15-3.66,8.15-8.15-3.66-8.15-8.15-8.15Z" fill="#88bd47"/>
    <path d="M16.1.5v5.43c4.81.3,8.67,4.16,8.97,8.97h5.43v1.2h-5.43c-.3,4.81-4.16,8.67-8.97,8.97v5.43h-1.2v-5.43c-4.81-.3-8.67-4.16-8.97-8.97H.5v-1.2h5.43c.3-4.81,4.16-8.67,8.97-8.97V.5h1.2M15.5,23.9c4.63,0,8.4-3.77,8.4-8.4s-3.77-8.4-8.4-8.4-8.4,3.77-8.4,8.4,3.77,8.4,8.4,8.4M16.6,0h-2.2v5.47c-4.69.51-8.42,4.24-8.93,8.93H0v2.2h5.47c.51,4.69,4.24,8.42,8.93,8.93v5.47h2.2v-5.47c4.69-.51,8.42-4.24,8.93-8.93h5.47v-2.2h-5.47c-.51-4.69-4.24-8.42-8.93-8.93V0h0ZM15.5,23.4c-4.36,0-7.9-3.54-7.9-7.9s3.54-7.9,7.9-7.9,7.9,3.54,7.9,7.9-3.54,7.9-7.9,7.9h0Z" fill="#88bd47"/>
  </g>
</svg>