<?xml version="1.0" encoding="UTF-8"?>
<svg id="Layer_1" data-name="Layer 1" xmlns="http://www.w3.org/2000/svg" viewBox="0 0 100 100">
  <path d="M85,50c0,19.33-15.67,35-35,35-9.66,0-18.42-3.92-24.75-10.25l49.5-49.5c6.33,6.33,10.25,15.09,10.25,24.75Z" fill="#e28125"/>
  <path d="M50,15c19.33,0,35,15.67,35,35s-15.67,35-35,35S15,69.33,15,50,30.67,15,50,15M50,5C25.19,5,5,25.19,5,50s20.19,45,45,45,45-20.19,45-45S74.81,5,50,5h0Z" fill="#fff"/>
  <path d="M74.75,25.25l-49.5,49.5c-6.33-6.33-10.25-15.09-10.25-24.75,0-19.33,15.67-35,35-35,9.66,0,18.42,3.92,24.75,10.25Z" fill="#e5e51d"/>
</svg>