<?xml version="1.0" encoding="UTF-8"?>
<svg id="Layer_1" data-name="Layer 1" xmlns="http://www.w3.org/2000/svg" viewBox="0 0 100 100">
  <path d="M51.93,75.14h12.27c-2.01,5.28-7.36,8.77-13.83,8.77-8.7,0-15.32-6.62-15.32-15.47s6.62-15.47,15.32-15.47c5.35,0,9.82,2.45,12.34,6.25h12.87c-2.75-10.11-12.94-17.33-25.21-17.33-15.47,0-27.14,11.45-27.14,26.55s11.68,26.55,27.14,26.55,26.4-11.3,26.4-26.33v-3.94h-24.84v10.41h0Z" fill="#253d38"/>
  <path d="M55.08,40.1h21.69l-15.93-27.58-3.07,5.32-7.77-12.84-7.77,12.84-3.07-5.32-15.93,27.58h31.85ZM50,31.3h0Z" fill="#88bd47"/>
</svg>