<?xml version="1.0" encoding="UTF-8"?>
<svg id="Layer_1" data-name="Layer 1" xmlns="http://www.w3.org/2000/svg" viewBox="0 0 30 30">
  <path d="M25.18,3.97l-3.84,3.84c-3.61-3.19-9.07-3.19-12.69,0l-3.84-3.84-.85.85,3.84,3.84c-3.19,3.61-3.19,9.07,0,12.69l-3.84,3.84.85.85,3.84-3.84c3.61,3.19,9.07,3.19,12.69,0l3.84,3.84.85-.85-3.84-3.84c3.19-3.61,3.19-9.07,0-12.69l3.84-3.84-.85-.85ZM20.94,20.94c-3.27,3.27-8.61,3.27-11.88,0s-3.27-8.61,0-11.88,8.61-3.27,11.88,0,3.27,8.61,0,11.88Z" fill="#fff"/>
  <circle cx="15" cy="15" r="1.2" fill="#fff"/>
  <path d="M30,14.4h-5.43c-.3-4.81-4.16-8.67-8.97-8.97V0h-1.2v5.43c-4.81.3-8.67,4.16-8.97,8.97H0v1.2h5.43c.3,4.81,4.16,8.67,8.97,8.97v5.43h1.2v-5.43c4.81-.3,8.67-4.16,8.97-8.97h5.43v-1.2ZM15,23.4c-4.63,0-8.4-3.77-8.4-8.4s3.77-8.4,8.4-8.4,8.4,3.77,8.4,8.4-3.77,8.4-8.4,8.4Z" fill="#88bd47"/>
</svg>