<?xml version="1.0" encoding="UTF-8"?>
<svg id="Layer_1" data-name="Layer 1" xmlns="http://www.w3.org/2000/svg" viewBox="0 0 100 100">
  <path d="M78.64,21.36c-7.65-7.65-17.82-11.86-28.64-11.86-22.33,0-40.5,18.17-40.5,40.5,0,10.82,4.21,20.99,11.86,28.64l3.54,3.54,3.54-3.54,50.21-50.21,3.54-3.54-3.54-3.54Z" fill="#f89938"/>
  <path d="M85.5,50c0,19.61-15.89,35.5-35.5,35.5-9.8,0-18.68-3.98-25.1-10.4l50.21-50.21c6.42,6.42,10.4,15.31,10.4,25.1Z" fill="#996632"/>
  <path d="M50,15c19.33,0,35,15.67,35,35s-15.67,35-35,35S15,69.33,15,50,30.67,15,50,15M50,5C25.19,5,5,25.19,5,50s20.19,45,45,45,45-20.19,45-45S74.81,5,50,5h0Z" fill="#fff"/>
</svg>