<?xml version="1.0" encoding="UTF-8"?>
<svg id="Layer_1" data-name="Layer 1" xmlns="http://www.w3.org/2000/svg" viewBox="0 0 30.5 30.5">
  <circle cx="15.25" cy="15.25" r="1.5" fill="#fff"/>
  <g>
    <path d="M14.52,30.38v-5.44c-4.78-.36-8.61-4.18-8.96-8.96H.12v-1.45h5.44c.36-4.78,4.18-8.61,8.96-8.96V.12h1.45v5.44c4.78.36,8.6,4.18,8.96,8.96h5.44v1.45h-5.44c-.36,4.78-4.18,8.6-8.96,8.96v5.44h-1.45ZM15.25,6.98c-4.56,0-8.27,3.71-8.27,8.27s3.71,8.28,8.27,8.28,8.28-3.71,8.28-8.28-3.71-8.27-8.28-8.27Z" fill="#88bd47"/>
    <path d="M15.85.25v5.43c4.81.3,8.67,4.16,8.97,8.97h5.43v1.2h-5.43c-.3,4.81-4.16,8.67-8.97,8.97v5.43h-1.2v-5.43c-4.81-.3-8.67-4.16-8.97-8.97H.25v-1.2h5.43c.3-4.81,4.16-8.67,8.97-8.97V.25h1.2M15.25,23.65c4.63,0,8.4-3.77,8.4-8.4s-3.77-8.4-8.4-8.4-8.4,3.77-8.4,8.4,3.77,8.4,8.4,8.4M16.1,0h-1.7v5.45c-4.75.41-8.54,4.2-8.95,8.95H0v1.7h5.45c.41,4.75,4.2,8.54,8.95,8.95v5.45h1.7v-5.45c4.75-.41,8.54-4.2,8.95-8.95h5.45v-1.7h-5.45c-.41-4.75-4.2-8.54-8.95-8.95V0h0ZM15.25,23.4c-4.49,0-8.15-3.66-8.15-8.15s3.66-8.15,8.15-8.15,8.15,3.66,8.15,8.15-3.66,8.15-8.15,8.15h0Z" fill="#88bd47"/>
  </g>
</svg>