<?xml version="1.0" encoding="UTF-8"?>
<svg id="Layer_1" data-name="Layer 1" xmlns="http://www.w3.org/2000/svg" viewBox="0 0 100 100">
  <path d="M89.69,73.43l-7.9-11.85v-20.38c0-14.11-9.4-26.6-22.92-30.53-1.04-2.23-2.91-4.02-5.2-4.95-4.85-1.96-10.37.26-12.54,4.95-13.52,3.92-22.92,16.41-22.92,30.54v20.38l-7.9,11.85c-.59.89-.9,1.92-.9,2.99,0,1.44.56,2.79,1.58,3.8,1.02,1.02,2.37,1.57,3.8,1.57h19.14c1.34,6.74,6.88,12.05,13.73,13.04.8.12,1.59.17,2.38.17,3.51,0,6.91-1.13,9.78-3.26,3.28-2.45,5.48-5.96,6.27-9.94h19.14c1.07,0,2.1-.31,2.99-.9,2.47-1.65,3.13-4.99,1.49-7.46ZM54.65,81.79c-.67.98-1.63,1.72-2.77,2.13-2.45.87-5.11-.08-6.51-2.13h9.29ZM71.93,66.19l3.23,4.84H24.84l3.23-4.84c.59-.89.9-1.92.9-2.98v-22.01c0-11.6,9.43-21.03,21.03-21.03s21.03,9.43,21.03,21.03v22.01c0,1.06.31,2.1.9,2.99Z" fill="#f5f5f5"/>
</svg>